<svg width="222" height="250" viewBox="0 0 222 250" fill="none" xmlns="http://www.w3.org/2000/svg">
<path fill-rule="evenodd" clip-rule="evenodd" d="M148 93.75C148 104.801 144.102 115.399 137.163 123.213C130.224 131.027 120.813 135.417 111 135.417C101.187 135.417 91.7759 131.027 84.837 123.213C77.8982 115.399 74 104.801 74 93.75C74 82.6993 77.8982 72.1012 84.837 64.2872C91.7759 56.4732 101.187 52.0833 111 52.0833C120.813 52.0833 130.224 56.4732 137.163 64.2872C144.102 72.1012 148 82.6993 148 93.75ZM129.5 93.75C129.5 99.2754 127.551 104.574 124.081 108.481C120.612 112.388 115.907 114.583 111 114.583C106.093 114.583 101.388 112.388 97.9185 108.481C94.4491 104.574 92.5 99.2754 92.5 93.75C92.5 88.2247 94.4491 82.9256 97.9185 79.0186C101.388 75.1116 106.093 72.9167 111 72.9167C115.907 72.9167 120.612 75.1116 124.081 79.0186C127.551 82.9256 129.5 88.2247 129.5 93.75Z" fill="black"/>
<path fill-rule="evenodd" clip-rule="evenodd" d="M111 10.4167C54.8063 10.4167 9.25 61.7188 9.25 125C9.25 188.281 54.8063 239.583 111 239.583C167.194 239.583 212.75 188.281 212.75 125C212.75 61.7188 167.194 10.4167 111 10.4167ZM27.75 125C27.75 146.771 34.3453 166.812 45.399 182.729C53.1619 171.249 63.1766 161.945 74.6608 155.545C86.1449 149.145 98.7876 145.821 111.601 145.833C124.249 145.82 136.733 149.058 148.101 155.3C159.47 161.542 169.423 170.624 177.202 181.854C185.217 170.017 190.613 156.2 192.945 141.548C195.276 126.895 194.476 111.828 190.61 97.5936C186.744 83.3587 179.924 70.3651 170.713 59.6879C161.503 49.0107 150.167 40.9569 137.644 36.1928C125.12 31.4287 111.77 30.0914 98.6962 32.2914C85.6228 34.4914 73.2026 40.1655 62.4631 48.8443C51.7237 57.5231 42.9738 68.957 36.9374 82.2C30.901 95.4429 27.7517 110.114 27.75 125ZM111 218.75C91.889 218.782 73.355 211.379 58.534 197.792C64.4996 188.174 72.4399 180.322 81.6793 174.903C90.9187 169.484 101.184 166.658 111.601 166.667C121.889 166.657 132.03 169.412 141.182 174.702C150.334 179.992 158.234 187.665 164.225 197.083C149.289 211.111 130.449 218.781 111 218.75Z" fill="black"/>
</svg>
