<svg width="47" height="40" viewBox="0 0 47 40" fill="none" xmlns="http://www.w3.org/2000/svg">
<path fill-rule="evenodd" clip-rule="evenodd" d="M15.6667 11.6667C15.6667 9.89856 16.492 8.20286 17.961 6.95262C19.43 5.70238 21.4225 5 23.5 5C25.5775 5 27.57 5.70238 29.039 6.95262C30.508 8.20286 31.3333 9.89856 31.3333 11.6667C31.3333 13.4348 30.508 15.1305 29.039 16.3807C27.57 17.631 25.5775 18.3333 23.5 18.3333C21.4225 18.3333 19.43 17.631 17.961 16.3807C16.492 15.1305 15.6667 13.4348 15.6667 11.6667ZM15.6667 21.6667C13.0698 21.6667 10.5792 22.5446 8.74291 24.1074C6.90662 25.6702 5.875 27.7899 5.875 30C5.875 31.3261 6.49397 32.5979 7.59575 33.5355C8.69752 34.4732 10.1919 35 11.75 35H35.25C36.8081 35 38.3025 34.4732 39.4043 33.5355C40.506 32.5979 41.125 31.3261 41.125 30C41.125 27.7899 40.0934 25.6702 38.2571 24.1074C36.4208 22.5446 33.9302 21.6667 31.3333 21.6667H15.6667Z" fill="white"/>
</svg>
