<svg width="59" height="46" viewBox="0 0 59 46" fill="none" xmlns="http://www.w3.org/2000/svg">
<path d="M33.1875 7.66666C32.2095 7.66666 31.2716 7.96956 30.58 8.50872C29.8885 9.04789 29.5 9.77916 29.5 10.5417C29.5 11.3042 29.8885 12.0354 30.58 12.5746C31.2716 13.1138 32.2095 13.4167 33.1875 13.4167C34.1655 13.4167 35.1034 13.1138 35.795 12.5746C36.4865 12.0354 36.875 11.3042 36.875 10.5417C36.875 9.77916 36.4865 9.04789 35.795 8.50872C35.1034 7.96956 34.1655 7.66666 33.1875 7.66666ZM32.3025 16.8092C29.3771 17.0008 21.3875 21.965 21.3875 21.965C20.8958 22.2525 21.0433 22.2333 21.4367 22.77C21.83 23.2875 21.7808 23.3258 22.2479 23.0767C22.7396 22.8275 23.5508 22.425 24.9029 21.7733C30.1146 19.1667 25.7387 25.185 23.5017 35.3242C22.6167 40.3458 28.4183 37.7583 29.9179 36.9917C31.3929 36.2442 35.3508 34.1167 35.7442 33.9058C36.285 33.6183 35.8917 33.3883 35.4737 32.9092C35.1787 32.5833 34.8837 32.8133 34.8837 32.8133C33.2858 33.6375 30.3604 35.3625 29.9671 34.27C29.5 33.1775 32.4992 25.6833 34.1462 20.5275C34.4167 19.3008 35.1542 16.6175 32.3025 16.8092Z" fill="white"/>
</svg>
