<svg width="45" height="37" viewBox="0 0 45 37" fill="none" xmlns="http://www.w3.org/2000/svg">
<path d="M31.875 27.75C29.7938 27.75 28.125 29.1221 28.125 30.8333C28.125 31.6511 28.5201 32.4354 29.2234 33.0136C29.9266 33.5918 30.8804 33.9167 31.875 33.9167C32.8696 33.9167 33.8234 33.5918 34.5266 33.0136C35.2299 32.4354 35.625 31.6511 35.625 30.8333C35.625 30.0156 35.2299 29.2313 34.5266 28.6531C33.8234 28.0749 32.8696 27.75 31.875 27.75ZM1.875 3.08334V6.16668H5.625L12.375 17.8679L9.825 21.645C9.54375 22.0767 9.375 22.5854 9.375 23.125C9.375 23.9428 9.77009 24.727 10.4733 25.3053C11.1766 25.8835 12.1304 26.2083 13.125 26.2083H35.625V23.125H13.9125C13.7882 23.125 13.669 23.0844 13.581 23.0121C13.4931 22.9398 13.4438 22.8418 13.4438 22.7396C13.4438 22.6625 13.4625 22.6008 13.5 22.5546L15.1875 20.0417H29.1562C30.5625 20.0417 31.8 19.3942 32.4375 18.4538L39.15 8.47918C39.2812 8.23251 39.375 7.97043 39.375 7.70834C39.375 7.29947 39.1775 6.90734 38.8258 6.61822C38.4742 6.3291 37.9973 6.16668 37.5 6.16668H9.76875L8.00625 3.08334M13.125 27.75C11.0437 27.75 9.375 29.1221 9.375 30.8333C9.375 31.6511 9.77009 32.4354 10.4733 33.0136C11.1766 33.5918 12.1304 33.9167 13.125 33.9167C14.1196 33.9167 15.0734 33.5918 15.7766 33.0136C16.4799 32.4354 16.875 31.6511 16.875 30.8333C16.875 30.0156 16.4799 29.2313 15.7766 28.6531C15.0734 28.0749 14.1196 27.75 13.125 27.75Z" fill="white"/>
</svg>
