<svg width="259" height="266" viewBox="0 0 259 266" fill="none" xmlns="http://www.w3.org/2000/svg">
<path fill-rule="evenodd" clip-rule="evenodd" d="M129.5 241.062C147.972 241.09 166.122 236.1 182.109 226.599V191.188C182.109 181.267 178.272 171.752 171.442 164.737C164.611 157.722 155.347 153.781 145.688 153.781H113.312C103.653 153.781 94.3888 157.722 87.5583 164.737C80.7279 171.752 76.8906 181.267 76.8906 191.188V226.599C92.8783 236.1 111.028 241.09 129.5 241.062ZM206.391 191.188V206.765C220.388 191.376 229.702 172.121 233.188 151.368C236.673 130.615 234.178 109.268 226.01 89.9516C217.841 70.6352 204.355 54.1911 187.21 42.6405C170.064 31.09 150.005 24.9365 129.5 24.9365C108.995 24.9365 88.9363 31.09 71.7904 42.6405C54.6446 54.1911 41.1585 70.6352 32.9901 89.9516C24.8217 109.268 22.327 130.615 25.8125 151.368C29.298 172.121 38.612 191.376 52.6094 206.765V191.188C52.6092 178.334 56.4752 165.795 63.6784 155.284C70.8817 144.774 81.0705 136.805 92.8515 132.468C86.7389 125.247 82.7777 116.373 81.4404 106.904C80.1031 97.4345 81.4461 87.7701 85.3093 79.0633C89.1725 70.3564 95.3928 62.9745 103.228 57.7982C111.064 52.6219 120.184 49.8696 129.5 49.8696C138.816 49.8696 147.936 52.6219 155.772 57.7982C163.607 62.9745 169.827 70.3564 173.691 79.0633C177.554 87.7701 178.897 97.4345 177.56 106.904C176.222 116.373 172.261 125.247 166.148 132.468C177.929 136.805 188.118 144.774 195.322 155.284C202.525 165.795 206.391 178.334 206.391 191.188ZM129.5 266C163.846 266 196.784 251.988 221.07 227.045C245.356 202.103 259 168.274 259 133C259 97.7262 245.356 63.8971 221.07 38.9548C196.784 14.0125 163.846 0 129.5 0C95.1545 0 62.2156 14.0125 37.9297 38.9548C13.6437 63.8971 0 97.7262 0 133C0 168.274 13.6437 202.103 37.9297 227.045C62.2156 251.988 95.1545 266 129.5 266ZM153.781 99.75C153.781 106.364 151.223 112.707 146.669 117.383C142.116 122.06 135.94 124.688 129.5 124.688C123.06 124.688 116.884 122.06 112.331 117.383C107.777 112.707 105.219 106.364 105.219 99.75C105.219 93.1362 107.777 86.7932 112.331 82.1165C116.884 77.4398 123.06 74.8125 129.5 74.8125C135.94 74.8125 142.116 77.4398 146.669 82.1165C151.223 86.7932 153.781 93.1362 153.781 99.75Z" fill="black"/>
</svg>
